<svg width="80" height="70" viewBox="0 0 80 70" fill="none" xmlns="http://www.w3.org/2000/svg">
<path d="M72.0436 37.9989C79.5345 40.1357 81.0254 45.8978 75.5199 51.4094C72.1599 54.7694 68.0509 56.6557 63.0036 56.302C64.429 55.742 66.0363 55.4473 67.2363 54.5778C70.0145 52.5441 73.1927 50.6652 75.1199 47.9389C78.1163 43.6947 75.5636 39.1189 70.6618 40.1726C65.8109 41.2115 63.0472 38.9641 59.4909 36.7094C49.2727 30.2326 37.8545 27.1084 25.9345 25.8999C23.3672 25.642 20.7272 26.1947 18.1236 26.2241C17.1709 26.2389 15.9054 26.1505 15.3163 25.561C12.0581 22.3336 11.7963 13.182 14.6327 7.43467C16.909 2.79994 22.509 -0.110588 27.6581 0.59678C35.709 1.69467 42.8072 5.03257 48.5672 10.7136C53.0109 15.0978 56.7781 20.182 60.9745 24.8389C61.7236 25.6715 63.0399 26.2241 64.1672 26.4084C65.8109 26.681 67.5709 26.261 69.2145 26.5484C74.2545 27.4252 76.0363 31.8094 73.229 36.1494C72.8363 36.7536 72.4509 37.3578 72.0363 37.9989H72.0436Z" fill="black"/>
<path d="M47.7091 55.9632C42.6764 63.0959 34.3637 63.3906 26.1019 56.9801C17.5346 61.2759 10.2909 58.2769 9.36731 49.6338C12.7782 51.9696 15.5491 50.3559 18.3419 48.5801C23.6146 45.2201 24.5164 45.5148 27.4328 51.638C28.8073 50.6948 30.1309 49.7443 31.4982 48.8601C34.32 47.0254 36.7055 47.3496 38.6255 50.3117C40.7419 53.5685 43.2728 56.2654 47.7164 55.9559L47.7091 55.9632ZM11.52 52.8022C15.0546 58.6306 18.1382 59.6622 24.2837 56.2801C26.0146 55.3222 26.8728 55.5211 28.2546 56.8696C32.7273 61.2611 37.5637 61.4232 42.9309 57.6285C41.6 56.4127 40.1455 55.3222 38.9819 53.9811C34.6619 49.0222 34.6982 48.9927 28.6255 52.3306C28.2109 52.559 27.7455 52.6769 27.2728 52.8611C26.8582 52.5075 26.4219 52.2496 26.1382 51.8738C22.8728 47.6222 22.9164 47.6959 18.0946 50.2159C16.0582 51.2769 13.8109 51.918 11.5273 52.7948L11.52 52.8022Z" fill="black"/>
<path d="M60.08 57.1936C56.3273 61.482 51.4982 64.1052 46.16 65.6231C36.1891 68.4599 26.1019 69.3884 16.2546 65.2105C6.08731 60.8926 2.30549 52.4484 5.84731 41.8378C7.06913 38.1684 9.34549 34.8673 11.1346 31.3894C11.5346 31.6105 11.9273 31.8315 12.3273 32.0526C11.4473 33.5631 10.5819 35.0736 9.69458 36.5768C2.00004 49.6336 7.6364 62.5505 22.4509 65.5199C36.1309 68.2536 48.6546 65.4536 60.08 57.1936Z" fill="black"/>
<path d="M35.8981 35.9062C39.0254 45.3526 40.6981 46.3031 53.7381 39.3694C53.3236 42.8252 46.7781 46.3547 41.6872 45.8684C37.4618 45.4631 35.3527 42.1473 35.8981 35.9062Z" fill="black"/>
<path d="M62.6836 53.3695C63.5418 50.5548 64.4072 47.7474 65.2654 44.9327C65.5127 44.9548 65.7527 44.9769 66 44.999C65.7672 47.018 65.5345 49.0369 65.1781 52.0801C67.7963 49.8695 69.7527 48.219 71.709 46.5611C71.5272 46.2222 71.3527 45.8832 71.1709 45.5369C70.0945 45.2716 69.0181 45.0064 67.9418 44.7411C68 44.3801 68.0509 44.019 68.109 43.658C69.6072 43.938 71.5127 43.7685 72.4581 44.6527C73.0618 45.2201 72.7781 47.9832 71.9781 48.6464C69.3163 50.8716 66.2472 52.5959 63.3381 54.5116C63.12 54.1285 62.9018 53.7453 62.6836 53.3695Z" fill="black"/>
<path d="M30.6182 37.5789C27.8763 41.3884 23.5709 43.4957 21.0036 41.9631C18.2545 40.32 17.4327 37.6968 18.2254 33.9094C18.7927 34.7494 19.1345 35.0663 19.2291 35.4347C20.6109 41.0936 22.1527 41.7052 26.8363 38.4926C27.8982 37.7631 29.0836 37.2326 30.2109 36.6063C30.3491 36.9305 30.4873 37.2547 30.6182 37.5789Z" fill="black"/>
<path d="M63.3673 25.7527C62.8073 22.2601 63.4837 20.3885 66.0291 19.6296C68.1746 18.9885 70.0655 19.2022 71.4328 22.2454C68.8218 23.3801 66.2982 24.4854 63.3673 25.7601V25.7527Z" fill="black"/>
</svg>
